<svg width="69" height="22" viewBox="0 0 69 22" fill="none" xmlns="http://www.w3.org/2000/svg">
<g clip-path="url(#clip0_1_288)">
<path d="M0.5 0H15.2156V7.28567H7.8578L0.5 0ZM0.5 7.28567H7.8578L15.2156 14.5713H0.5V7.28567ZM0.5 14.5713H7.8578V21.857L0.5 14.5713Z" fill="white"/>
<path d="M23.5187 5.74768H29.467V7.61935H25.7701V10.2203H29.467V12.0507H25.7701V15.381H23.5187V5.74768ZM30.69 8.74768H32.8165V10.1377C32.9276 9.66001 33.1548 9.29335 33.4975 9.03668C33.849 8.77035 34.2391 8.63768 34.665 8.63768C34.8875 8.63768 35.073 8.65635 35.2207 8.69268V10.647C35.0087 10.6217 34.7952 10.608 34.5815 10.6057C33.9977 10.6057 33.5581 10.7933 33.2612 11.1697C32.9653 11.5367 32.8165 12.087 32.8165 12.8213V15.381H30.691V8.74768H30.69ZM38.5776 15.56C37.9293 15.56 37.3637 15.4083 36.882 15.1057C36.4094 14.803 36.0337 14.3733 35.7981 13.867C35.5479 13.3353 35.422 12.7337 35.422 12.0643C35.422 11.4037 35.5527 10.807 35.8119 10.2753C36.0549 9.76168 36.4407 9.32735 36.9238 9.02301C37.4142 8.72035 37.9751 8.56868 38.6056 8.56868C39.0779 8.56868 39.5 8.67001 39.8703 8.87168C40.2406 9.07401 40.5187 9.34935 40.7042 9.69735V8.74768H42.8165V15.381H40.7042V14.445C40.5187 14.7753 40.2315 15.0457 39.8424 15.257C39.4532 15.4613 39.0183 15.5653 38.5776 15.56ZM39.1893 13.812C39.6986 13.812 40.0925 13.647 40.3706 13.3167C40.6486 12.9863 40.7877 12.5687 40.7877 12.0643C40.7877 11.569 40.6486 11.156 40.3706 10.8257C40.0925 10.4953 39.6986 10.3303 39.1893 10.3303C38.7069 10.3303 38.3184 10.4907 38.0219 10.812C37.7347 11.1333 37.591 11.5503 37.591 12.0643C37.591 12.5783 37.7347 13 38.0219 13.3303C38.3184 13.6517 38.7076 13.812 39.1893 13.812ZM44.3038 8.74768H46.4303V9.71101C46.5791 9.37101 46.8195 9.09568 47.1527 8.88535C47.4961 8.67501 47.8943 8.56868 48.3481 8.56868C49.4045 8.56868 50.1043 8.97668 50.4467 9.79368C50.6352 9.42335 50.9301 9.11701 51.2947 8.91301C51.6845 8.68068 52.1322 8.56168 52.587 8.56868C54.1715 8.56868 54.9636 9.46735 54.9636 11.266V15.381H52.8233V11.6513C52.8233 11.2023 52.7398 10.872 52.5732 10.6607C52.4062 10.45 52.1561 10.344 51.8225 10.344C51.4613 10.344 51.1832 10.468 50.9887 10.7157C50.7941 10.9543 50.6968 11.3713 50.6968 11.968V15.381H48.5565V11.6377C48.5565 11.1883 48.4733 10.8623 48.3064 10.6607C48.1495 10.45 47.9034 10.344 47.5705 10.344C47.1995 10.344 46.9167 10.468 46.7222 10.7157C46.5276 10.9543 46.4303 11.3713 46.4303 11.968V15.381H44.3045V8.74768H44.3038ZM62.9519 11.7203C62.9519 12.0043 62.9331 12.312 62.8954 12.6423H57.9486C57.9674 13.0737 58.1152 13.4033 58.3933 13.6333C58.6713 13.8623 59.0473 13.9773 59.519 13.9773C60.1771 13.9773 60.5942 13.7797 60.7699 13.3853H62.8547C62.7523 14.037 62.3911 14.564 61.7704 14.968C61.159 15.3623 60.4083 15.56 59.519 15.56C58.3704 15.56 57.4668 15.2523 56.8087 14.6377C56.1604 14.0227 55.8359 13.1653 55.8359 12.0643C55.8359 11.3487 55.984 10.7293 56.2805 10.2063C56.567 9.68401 57.0087 9.26135 57.5453 8.99535C58.0923 8.71135 58.7269 8.56868 59.4503 8.56868C60.1353 8.56868 60.7419 8.70168 61.2701 8.96801C61.8074 9.23435 62.2201 9.60568 62.5069 10.0827C62.8038 10.5603 62.9519 11.106 62.9519 11.7203ZM60.8524 11.335C60.8433 10.8947 60.7184 10.5593 60.477 10.3303C60.2367 10.1013 59.8886 9.98635 59.4348 9.98635C58.981 9.98635 58.6198 10.11 58.3508 10.358C58.0916 10.5967 57.9573 10.922 57.9476 11.335H60.8524ZM63.8895 8.74768H66.016V10.1377C66.1271 9.66001 66.3543 9.29335 66.697 9.03668C67.0296 8.77735 67.441 8.63668 67.8644 8.63768C68.0866 8.63768 68.2724 8.65635 68.4202 8.69268V10.647C68.2081 10.6217 67.9947 10.608 67.781 10.6057C67.1972 10.6057 66.7576 10.7933 66.4607 11.1697C66.1638 11.5367 66.016 12.087 66.016 12.8213V15.381H63.8895V8.74768Z" fill="white"/>
</g>
<defs>
<clipPath id="clip0_1_288">
<rect width="68" height="22" fill="white" transform="translate(0.5)"/>
</clipPath>
</defs>
</svg>
