<svg width="17" height="17" viewBox="0 0 17 17" fill="none" xmlns="http://www.w3.org/2000/svg">
<path d="M13.3245 8.92451L9.7245 12.5245C9.61178 12.6372 9.45891 12.7006 9.2995 12.7006C9.14009 12.7006 8.98722 12.6372 8.8745 12.5245C8.76178 12.4118 8.69846 12.2589 8.69846 12.0995C8.69846 11.9401 8.76178 11.7872 8.8745 11.6745L11.45 9.10001H4.1C3.94087 9.10001 3.78826 9.0368 3.67574 8.92428C3.56321 8.81176 3.5 8.65914 3.5 8.50001C3.5 8.34088 3.56321 8.18827 3.67574 8.07575C3.78826 7.96323 3.94087 7.90001 4.1 7.90001H11.45L8.8755 5.32401C8.76278 5.2113 8.69946 5.05842 8.69946 4.89901C8.69946 4.73961 8.76278 4.58673 8.8755 4.47401C8.98822 4.3613 9.14109 4.29797 9.3005 4.29797C9.45991 4.29797 9.61278 4.3613 9.7255 4.47401L13.3255 8.07401C13.3814 8.12983 13.4258 8.19615 13.4561 8.26916C13.4863 8.34218 13.5018 8.42044 13.5017 8.49947C13.5016 8.5785 13.4859 8.65673 13.4555 8.72967C13.4251 8.80261 13.3806 8.86883 13.3245 8.92451Z" fill="white"/>
</svg>
