<svg width="24" height="25" viewBox="0 0 24 25" fill="none" xmlns="http://www.w3.org/2000/svg">
<path d="M17.631 7.63598C17.514 7.57698 17.401 7.51198 17.29 7.44098C16.97 7.23298 16.676 6.98798 16.415 6.71098C15.763 5.97798 15.519 5.23398 15.429 4.71298H15.433C15.358 4.27998 15.389 4.00098 15.394 4.00098H12.421V15.29C12.421 15.442 12.421 15.592 12.415 15.74C12.415 15.758 12.413 15.775 12.412 15.795C12.412 15.803 12.412 15.811 12.41 15.82V15.826C12.346 16.649 11.87 17.386 11.14 17.794C10.765 18.003 10.342 18.113 9.90997 18.113C8.52597 18.113 7.40297 17.003 7.40297 15.634C7.40297 14.264 8.52597 13.155 9.90997 13.155C10.173 13.154 10.433 13.195 10.682 13.275L10.686 10.302C9.15597 10.108 7.61397 10.551 6.43197 11.524C5.91897 11.962 5.48897 12.483 5.15897 13.066C5.03297 13.279 4.55997 14.132 4.50297 15.518C4.46697 16.305 4.70697 17.12 4.82197 17.456V17.464C4.89397 17.662 5.17297 18.339 5.62897 18.909C5.99597 19.367 6.42997 19.769 6.91597 20.102V20.095L6.92297 20.102C8.36197 21.063 9.95797 21 9.95797 21C10.234 20.989 11.159 21 12.21 20.511C13.375 19.968 14.038 19.161 14.038 19.161C14.462 18.678 14.799 18.128 15.035 17.534C15.304 16.84 15.394 16.007 15.394 15.674V9.68398C15.43 9.70598 15.91 10.018 15.91 10.018C15.91 10.018 16.602 10.453 17.681 10.737C18.456 10.939 19.499 10.981 19.499 10.981V8.08298C19.133 8.12198 18.391 8.00798 17.631 7.63598Z" fill="white" fill-opacity="0.5"/>
</svg>
